# xmcd
# Copyright (C) 1995-1998 Ti Kan
#
# Track frame offsets:
#       150
#       14726
#       34250
#       45805
#       54039
#       75097
#       89854
#       102886
#       117563
#       136886
#       152208
#       162334
#       189855
#       196238
#       217621
#       225014
#       240312
#       251139
#       267870
#       288496
#       319353
#
# Disc length: 4557 seconds
#
# Revision: 0
# Processed by: cddbd v1.5.2PL0 Copyright (c) Steve Scherf et al.
# Submitted via: CD-Import v1.0
#
DISCID=0c11cb15
DTITLE=Sufjan Stevens - The Avalanche
DYEAR=1900
DGENRE=
TTITLE0=The Avalanche
TTITLE1=Dear Mr. Supercomputer
TTITLE2=Adlai Stevenson
TTITLE3=The Vivian Girls Are Visited In The Night By Saint Dargarius And His Squadron Of Benevolent Butterflies
TTITLE4=Chicago (Acoustic Version)
TTITLE5=The Henney Buggy Band
TTITLE6=Saul Bellow
TTITLE7=Carlyle Lake
TTITLE8=Springfield, Or Bobby Got A Shadfly Caught In His Hair
TTITLE9=The Mistress Witch From Mcclure (Or, The Mind That Knows Itself)
TTITLE10=Kaskaskia River
TTITLE11=Chicago (Adult Contemporary Easy Listening Version)
TTITLE12=Inaugural Pop Music For Jane Margaret Byrne
TTITLE13=No Man's Land
TTITLE14=The Palm Sunday Tornado Hits Crystal Lake
TTITLE15=The Pick-Up
TTITLE16=The Perpetual Self, Or "what Would Saul Alinsky Do?"
TTITLE17=For Clyde Tombaugh
TTITLE18=Chicago (Multiple Personality Disorder Version)
TTITLE19=Pittsfield
TTITLE20=The Undivided Self (For Eppie And Popo)
EXTD=
EXTT0=
EXTT1=
EXTT2=
EXTT3=
EXTT4=
EXTT5=
EXTT6=
EXTT7=
EXTT8=
EXTT9=
EXTT10=
EXTT11=
EXTT12=
EXTT13=
EXTT14=
EXTT15=
EXTT16=
EXTT17=
EXTT18=
EXTT19=
EXTT20=
PLAYORDER=
